<?xml version="1.0" encoding="utf-8"?>
<!-- Generator: Adobe Illustrator 23.0.0, SVG Export Plug-In . SVG Version: 6.00 Build 0)  -->
<svg version="1.1" id="Layer_1" xmlns="http://www.w3.org/2000/svg" xmlns:xlink="http://www.w3.org/1999/xlink" x="0px" y="0px"
	 viewBox="0 0 100 100" style="enable-background:new 0 0 100 100;" xml:space="preserve">
<style type="text/css">
	.st0{fill:#AA143E;}
	.st1{display:none;}
	.st2{display:inline;}
	.st3{fill:#FFFFFF;}
</style>
<g id="Capa_1">
	<circle class="st0" cx="50" cy="50" r="50"/>
</g>
<g class="st1">
	<g class="st2">
		<path d="M28.2,69h43.7V32.9H28.2V69z M29.3,67.8V40.5h41.3v27.3H29.3L29.3,67.8z M70.7,39.3H58.5V34h12.1L70.7,39.3L70.7,39.3z
			 M57.4,34v5.3h-28V34C29.3,34,57.4,34,57.4,34z"/>
		<path d="M32.4,38.6c1,0,1.9-0.8,1.9-1.9s-0.8-1.9-1.9-1.9s-1.9,0.8-1.9,1.9S31.4,38.6,32.4,38.6z M31.9,36.3L31.9,36.3
			c0,0.3,0.3,0.6,0.6,0.6s0.6-0.3,0.6-0.6l0,0c0.1,0.1,0.1,0.3,0.1,0.4c0,0.4-0.3,0.7-0.7,0.7s-0.7-0.3-0.7-0.7
			C31.7,36.5,31.8,36.4,31.9,36.3z"/>
		<path d="M37.6,38.6c1,0,1.9-0.8,1.9-1.9s-0.8-1.9-1.9-1.9s-1.9,0.8-1.9,1.9S36.6,38.6,37.6,38.6z M37,36.3L37,36.3
			c0,0.3,0.3,0.6,0.6,0.6s0.6-0.3,0.6-0.6l0,0c0.1,0.1,0.1,0.3,0.1,0.4c0,0.4-0.3,0.7-0.7,0.7s-0.7-0.3-0.7-0.7
			C36.9,36.5,36.9,36.4,37,36.3z"/>
		<path d="M42.8,38.6c1,0,1.9-0.8,1.9-1.9s-0.8-1.9-1.9-1.9s-1.9,0.8-1.9,1.9S41.7,38.6,42.8,38.6z M42.2,36.3L42.2,36.3
			c0,0.3,0.3,0.6,0.6,0.6s0.6-0.3,0.6-0.6l0,0c0.1,0.1,0.1,0.3,0.1,0.4c0,0.4-0.3,0.7-0.7,0.7s-0.7-0.3-0.7-0.7
			C42,36.5,42.1,36.4,42.2,36.3z"/>
		<path d="M47.9,38.6c1,0,1.9-0.8,1.9-1.9s-0.8-1.9-1.9-1.9S46,35.7,46,36.7S46.9,38.6,47.9,38.6z M47.3,36.3L47.3,36.3
			c0,0.3,0.3,0.6,0.6,0.6s0.6-0.3,0.6-0.6l0,0c0.1,0.1,0.1,0.3,0.1,0.4c0,0.4-0.3,0.7-0.7,0.7s-0.7-0.3-0.7-0.7
			C47.2,36.5,47.2,36.4,47.3,36.3z"/>
		<path d="M53.1,38.6c1,0,1.9-0.8,1.9-1.9s-0.8-1.9-1.9-1.9c-1,0-1.9,0.8-1.9,1.9S52,38.6,53.1,38.6z M52.5,36.3L52.5,36.3
			c0,0.3,0.3,0.6,0.6,0.6s0.6-0.3,0.6-0.6l0,0c0.1,0.1,0.1,0.3,0.1,0.4c0,0.4-0.3,0.7-0.7,0.7s-0.7-0.3-0.7-0.7
			C52.4,36.5,52.4,36.4,52.5,36.3z"/>
		<path d="M69,38.6v-3.8h-4.7v3.8H69z M65.5,36h2.4v1.5h-2.4V36z"/>
		<path d="M75,63.3V33.8c0-2-1.6-3.6-3.6-3.6H56.8v-0.5v-0.6v-0.7c0-0.9-0.8-1.7-1.7-1.7H44.8c-0.9,0-1.7,0.8-1.7,1.7v0.7v0.6v0.5
			H28.6c-2,0-3.6,1.6-3.6,3.6v34.3c0,2,1.6,3.6,3.6,3.6v1.6h3.3v-1.6h36.2v1.6h3.3v-1.6c2,0,3.6-1.6,3.6-3.6v-2V63.3z M44.3,28.3
			c0-0.3,0.2-0.5,0.5-0.5h10.3c0.3,0,0.5,0.2,0.5,0.5v0.2H44.3V28.3z M44.3,29.6h11.3v0.5H44.3V29.6z M30.7,72.2h-1v-0.5h1V72.2z
			 M69.3,72.2v-0.5h1v0.5H69.3z M73.8,68.1c0,1.4-1.1,2.5-2.5,2.5H28.6c-1.4,0-2.5-1.1-2.5-2.5V33.8c0-1.4,1.1-2.5,2.5-2.5h42.7
			c1.4,0,2.5,1.1,2.5,2.5V68.1z"/>
	</g>
</g>
<g id="Layer_3" class="st1">
	<g class="st2">
		<g>
			<path d="M60.8,60.9H39.3c-0.3,0-0.5-0.2-0.5-0.5s0.2-0.5,0.5-0.5h21.6c0.3,0,0.5,0.2,0.5,0.5C61.4,60.6,61.1,60.9,60.8,60.9z"/>
			<path d="M60.8,63.3H39.3c-0.3,0-0.5-0.2-0.5-0.5s0.2-0.5,0.5-0.5h21.6c0.3,0,0.5,0.2,0.5,0.5S61.1,63.3,60.8,63.3z"/>
			<path d="M60.8,65.8H39.3c-0.3,0-0.5-0.2-0.5-0.5s0.2-0.5,0.5-0.5h21.6c0.3,0,0.5,0.2,0.5,0.5C61.4,65.5,61.1,65.8,60.8,65.8z"/>
			<path d="M60.8,68.2H39.3c-0.3,0-0.5-0.2-0.5-0.5s0.2-0.5,0.5-0.5h21.6c0.3,0,0.5,0.2,0.5,0.5S61.1,68.2,60.8,68.2z"/>
			<path d="M60.8,70.6H39.3c-0.3,0-0.5-0.2-0.5-0.5s0.2-0.5,0.5-0.5h21.6c0.3,0,0.5,0.2,0.5,0.5S61.1,70.6,60.8,70.6z"/>
			<path d="M60.8,73.1H39.3c-0.3,0-0.5-0.2-0.5-0.5S39,72,39.3,72h21.6c0.3,0,0.5,0.2,0.5,0.5S61.1,73.1,60.8,73.1z"/>
		</g>
		<g>
			<path d="M63.7,56.5H36.4c-0.3,0-0.5,0.2-0.5,0.5v18.8c0,0.3,0.2,0.5,0.5,0.5h27.2c0.3,0,0.5-0.2,0.5-0.5V57
				C64.2,56.7,64,56.5,63.7,56.5z M63.1,75.3H37V57.6h26.1V75.3L63.1,75.3z"/>
			<path d="M38,44.8c0.1,0.1,0.3,0.2,0.4,0.2c0.1,0,0.3,0,0.4-0.1c0.2-0.2,0.3-0.5,0.1-0.8l-1-1.2h3.2c0.3,0,0.5-0.2,0.5-0.5
				s-0.2-0.5-0.5-0.5h-3.2l1-1.2c0.2-0.2,0.2-0.6-0.1-0.8c-0.2-0.2-0.6-0.2-0.8,0.1l-1.7,2c-0.2,0.2-0.2,0.5,0,0.7L38,44.8z"/>
			<path d="M38,52.3c0.1,0.1,0.3,0.2,0.4,0.2c0.1,0,0.3,0,0.4-0.1c0.2-0.2,0.3-0.5,0.1-0.8l-1-1.2h3.2c0.3,0,0.5-0.2,0.5-0.5
				s-0.2-0.5-0.5-0.5h-3.2l1-1.2c0.2-0.2,0.2-0.6-0.1-0.8c-0.2-0.2-0.6-0.2-0.8,0.1l-1.8,2.1c-0.2,0.2-0.2,0.5,0,0.7L38,52.3z"/>
			<path d="M59,50.4h3.2l-1,1.2c-0.2,0.2-0.2,0.6,0.1,0.8c0.1,0.1,0.2,0.1,0.4,0.1s0.3-0.1,0.4-0.2l1.8-2.1c0.2-0.2,0.2-0.5,0-0.7
				l-1.8-2.1c-0.2-0.2-0.5-0.3-0.8-0.1c-0.2,0.2-0.3,0.5-0.1,0.8l1,1.2H59c-0.3,0-0.5,0.2-0.5,0.5C58.5,50.2,58.7,50.4,59,50.4z"/>
			<path d="M59,42.9h3.2l-1,1.2c-0.2,0.2-0.2,0.6,0.1,0.8c0.1,0.1,0.2,0.1,0.4,0.1s0.3-0.1,0.4-0.2l1.8-2.1c0.2-0.2,0.2-0.5,0-0.7
				l-1.8-2.1c-0.2-0.2-0.5-0.3-0.8-0.1c-0.2,0.2-0.3,0.5-0.1,0.8l1,1.2H59c-0.3,0-0.5,0.2-0.5,0.5S58.7,42.9,59,42.9z"/>
			<path d="M68.7,45.2c0.3,0,0.5-0.2,0.5-0.5v-4.5c0-0.3-0.2-0.5-0.5-0.5h-1.8v-1.3c0-1.1-0.8-2-1.9-2.1V20.9H35.1v15.2
				c-1.1,0.1-1.9,1-1.9,2.1v1.3h-1.8c-0.3,0-0.5,0.2-0.5,0.5v4.5c0,0.3,0.2,0.5,0.5,0.5h1.8v1.6h-2c-0.3,0-0.5,0.2-0.5,0.5v4.5
				c0,0.3,0.2,0.5,0.5,0.5h2V77c0,1.1,0.9,2.1,2.1,2.1h29.5c1.1,0,2.1-0.9,2.1-2.1V52.4h1.8c0.3,0,0.5-0.2,0.5-0.5v-4.5
				c0-0.3-0.2-0.5-0.5-0.5h-1.8v-1.6h1.8V45.2z M31.9,44.1v-3.5h1.3v3.5H31.9z M31.8,51.4v-3.5h1.4v3.5H31.8z M63.9,22v14.1H36.2V22
				H63.9z M65.8,77c0,0.5-0.4,1-1,1H35.3c-0.5,0-1-0.4-1-1V38.2c0-0.5,0.4-1,1-1h29.5c0.5,0,1,0.4,1,1V77z M68.2,40.6v3.5h-1.3v-3.5
				H68.2z M68.2,47.9v3.5h-1.3v-3.5H68.2z"/>
			<path d="M39.8,33.3c1.5,0,2.8-1.2,2.8-2.8s-1.2-2.8-2.8-2.8S37,28.9,37,30.5S38.3,33.3,39.8,33.3z M39.3,28.9v0.8
				c0,0.3,0.2,0.5,0.5,0.5s0.5-0.2,0.5-0.5v-0.8c0.7,0.2,1.1,0.8,1.1,1.6c0,0.9-0.8,1.7-1.7,1.7S38,31.4,38,30.5
				C38.2,29.8,38.6,29.1,39.3,28.9z"/>
			<path d="M46.6,33.3c1.5,0,2.8-1.2,2.8-2.8s-1.2-2.8-2.8-2.8s-2.8,1.2-2.8,2.8S45.1,33.3,46.6,33.3z M46.1,28.9v0.8
				c0,0.3,0.2,0.5,0.5,0.5s0.5-0.2,0.5-0.5v-0.8c0.7,0.2,1.1,0.8,1.1,1.6c0,0.9-0.8,1.7-1.7,1.7S45,31.4,45,30.5
				C45,29.8,45.4,29.1,46.1,28.9z"/>
			<path d="M50.7,30.5c0,1.5,1.2,2.8,2.8,2.8c1.5,0,2.8-1.2,2.8-2.8s-1.2-2.8-2.8-2.8S50.7,29,50.7,30.5z M52.9,28.9v0.8
				c0,0.3,0.2,0.5,0.5,0.5s0.5-0.2,0.5-0.5v-0.8c0.7,0.2,1.1,0.8,1.1,1.6c0,0.9-0.8,1.7-1.7,1.7s-1.7-0.8-1.7-1.7
				C51.7,29.8,52.2,29.1,52.9,28.9z"/>
			<path d="M60.2,33.3c1.5,0,2.8-1.2,2.8-2.8s-1.2-2.8-2.8-2.8c-1.5,0-2.8,1.2-2.8,2.8S58.7,33.3,60.2,33.3z M59.7,28.9v0.8
				c0,0.3,0.2,0.5,0.5,0.5s0.5-0.2,0.5-0.5v-0.8c0.7,0.2,1.1,0.8,1.1,1.6c0,0.9-0.8,1.7-1.7,1.7s-1.7-0.8-1.7-1.7
				C58.5,29.8,59,29.1,59.7,28.9z"/>
			<path d="M50.1,26.8c0.9,0,1.7-0.7,1.7-1.7c0-0.9-0.7-1.7-1.7-1.7c-0.9,0-1.7,0.7-1.7,1.7S49.1,26.8,50.1,26.8z M50.1,24.5
				c0.3,0,0.6,0.3,0.6,0.6s-0.3,0.6-0.6,0.6s-0.6-0.3-0.6-0.6S49.7,24.5,50.1,24.5z"/>
		</g>
	</g>
</g>
<g id="Layer_4" class="st1">
	<path class="st2" d="M41.2,68.9c0.4,0.4,0.8,0.5,1.3,0.5s1-0.2,1.3-0.5l1.1-1.1c0.7-0.7,0.7-1.9,0-2.7l-10-10
		c-0.7-0.7-1.9-0.7-2.7,0l-1.1,1.1c-0.7,0.7-0.7,1.9,0,2.7L41.2,68.9z M32.4,57.4l1.1-1.1h0.1h0.1l10,10c0,0,0,0.1,0,0.2l-1.1,1.1
		c0,0-0.1,0-0.2,0l-10-10C32.3,57.5,32.3,57.5,32.4,57.4z M34.9,67.9c0-0.5-0.5-0.8-0.9-0.8c-0.3,0-0.6-0.1-0.8-0.3
		c-0.2-0.2-0.3-0.5-0.3-0.8c0-0.5-0.3-0.9-0.8-0.9s-0.9,0.3-0.9,0.8c-0.1,0.8,0.2,1.6,0.8,2.2c0.5,0.5,1.2,0.8,2,0.8
		c0.1,0,0.1,0,0.2,0C34.6,68.8,35,68.4,34.9,67.9z M79.3,26.3l-5.5-5.5c-0.5-0.5-1.2-0.8-1.9-0.7c-0.7,0-1.4,0.4-1.8,0.9l-1,1
		l-0.7-0.7c-0.3-0.3-0.9-0.3-1.2,0c-0.3,0.3-0.3,0.9,0,1.2l0.9,0.9l-1.5,1.8L66,24.6c-0.3-0.3-0.9-0.3-1.2,0c-0.3,0.3-0.3,0.9,0,1.2
		l0.7,0.7l-1.1,1.4c-0.6,0.8-0.6,1.9,0.1,2.6L59.9,35c-0.3,0.3-0.3,0.9,0,1.2c0.2,0.2,0.4,0.3,0.6,0.3c0.2,0,0.5-0.1,0.6-0.3
		l4.5-4.5l2.6,2.6L58.1,44.5l0,0l-5.4,5.4l0,0l-1.5,1.5c-0.2-0.6-0.6-1.1-1-1.6c-0.5-0.5-1-0.8-1.6-1l1.5-1.5l0,0l5.4-5.4l0,0
		l2.8-2.8c0.3-0.3,0.3-0.9,0-1.2s-0.9-0.3-1.2,0l-2.2,2.2c-2.3-1.8-4.6-2.8-6.8-3.1c-2.4-0.3-4.5,0.4-6.2,2.1
		c-1.8,1.8-2.4,3.1-2.9,4.3c-0.4,1-0.8,1.9-1.9,2.9c-0.9,0.9-1.9,0.9-3.6,0.9c-2.4-0.1-5.6-0.1-9.4,3.7c-2.9,2.9-4.2,6-4,9.4
		c0.3,3.9,2.7,8.1,7.1,12.6c1.4,1.4,2.7,2.6,4,3.5c0.2,0.1,0.3,0.2,0.5,0.2c0.3,0,0.5-0.1,0.7-0.4c0.3-0.4,0.2-0.9-0.2-1.2
		c-1.2-0.9-2.5-2.1-3.8-3.4c-4.2-4.2-6.4-8-6.6-11.5c-0.2-2.9,0.9-5.5,3.5-8c3.3-3.3,5.9-3.2,8.1-3.1c1.7,0,3.4,0.1,4.9-1.4
		c1.3-1.3,1.8-2.4,2.3-3.5s1-2.2,2.6-3.8c2.5-2.5,6.3-2.1,10.5,1l-4.3,4.3c-2.7-0.8-5.6-0.1-7.6,1.9c-1.4,1.4-2.2,3.3-2.2,5.4
		c0,2,0.8,3.9,2.2,5.4c1.5,1.5,3.4,2.2,5.4,2.2c1.9,0,3.9-0.7,5.4-2.2c2-2,2.7-4.9,1.9-7.6l4.3-4.3c3.1,4.2,3.5,8,1,10.5
		c-1.6,1.6-2.6,2-3.8,2.6c-1.1,0.5-2.2,1-3.5,2.3c-1.5,1.5-1.4,3.2-1.4,4.9c0.1,2.3,0.1,4.9-3.1,8.1c-3.7,3.7-7.7,4.5-12.3,2.3
		c-0.4-0.2-1,0-1.2,0.4s0,1,0.4,1.2c1.9,0.9,3.8,1.4,5.6,1.4c3.1,0,6-1.3,8.7-4c3.8-3.8,3.7-7.1,3.7-9.4c0-1.7,0-2.7,0.9-3.6
		c1.1-1.1,1.9-1.5,2.9-1.9c1.2-0.5,2.5-1.1,4.3-2.9c1.7-1.7,2.4-3.8,2.1-6.2c-0.3-2.2-1.3-4.4-3.1-6.8l9.6-9.6
		c0.4,0.4,0.9,0.5,1.4,0.5c0.4,0,0.9-0.1,1.3-0.4l1.4-1.1l0.7,0.7c0.2,0.2,0.4,0.3,0.6,0.3s0.5-0.1,0.6-0.3c0.3-0.3,0.3-0.9,0-1.2
		L75,33.6l1.8-1.5l0.9,0.9c0.2,0.2,0.4,0.3,0.6,0.3s0.4-0.1,0.6-0.3c0.3-0.3,0.3-0.9,0-1.2L78,30.9l1.1-0.9c0.6-0.5,0.9-1.1,0.9-1.8
		C80,27.5,79.8,26.8,79.3,26.3z M49,51c1.1,1.1,1.1,2.8,0,3.8c-1.1,1.1-2.8,1.1-3.8,0c-1.1-1.1-1.1-2.8,0-3.8
		c0.5-0.5,1.2-0.8,1.9-0.8C47.7,50.3,48.4,50.5,49,51z M51.2,57.1c-2.3,2.3-6,2.3-8.2,0c-1.1-1.1-1.7-2.6-1.7-4.1
		c0-1.6,0.6-3,1.7-4.1c1.3-1.3,3.1-1.9,4.8-1.7l-1.4,1.4c-0.9,0.1-1.8,0.6-2.5,1.3c-1.7,1.7-1.7,4.6,0,6.3c0.9,0.9,2,1.3,3.2,1.3
		c1.1,0,2.3-0.4,3.2-1.3c0.7-0.7,1.1-1.6,1.3-2.5l1.4-1.4C53,54,52.4,55.8,51.2,57.1z M78.2,28.1c0,0.2-0.1,0.4-0.3,0.6l-5,4l0,0
		l-2,1.6c-0.1,0.1-0.2,0.1-0.3,0l-5-5c-0.1-0.1-0.1-0.2,0-0.3l1.6-2l0,0l2.6-3.2l0,0l1.5-1.8c0.1-0.2,0.3-0.3,0.6-0.3l0,0
		c0.2,0,0.4,0.1,0.6,0.2l5.5,5.5C78.2,27.7,78.3,27.9,78.2,28.1z M36.9,69.5l-0.6,0.6c-0.3,0.3-0.3,0.9,0,1.2
		c0.2,0.2,0.4,0.3,0.6,0.3c0.2,0,0.4-0.1,0.6-0.3l0.6-0.6c0.3-0.3,0.3-0.9,0-1.2C37.8,69.1,37.3,69.1,36.9,69.5z M29.3,61.8
		l-0.6,0.6c-0.3,0.3-0.3,0.9,0,1.2c0.2,0.2,0.4,0.3,0.6,0.3s0.5-0.1,0.6-0.3l0.6-0.6c0.3-0.3,0.3-0.9,0-1.2S29.6,61.5,29.3,61.8z"/>
</g>
<g id="Layer_5" class="st1">
	<g class="st2">
		<g>
			<g>
				<path d="M43,58.4l-2.9-2.9c-1-1-2.7-1-3.7,0s-1,2.7,0,3.7l2.9,2.9c0.5,0.5,1.2,0.8,1.9,0.8s1.4-0.3,1.9-0.8
					C44.1,61.1,44.1,59.4,43,58.4z M41.8,60.9c-0.3,0.3-0.9,0.3-1.2,0L37.7,58c-0.3-0.3-0.3-0.9,0-1.2s0.9-0.3,1.2,0l2.9,2.9
					C42.1,60,42.1,60.5,41.8,60.9z"/>
			</g>
		</g>
		<g>
			<g>
				<path d="M39.2,64.1l-4.7-4.7c-0.4-0.4-1-0.6-1.5-0.6c-0.6,0-1.1,0.2-1.5,0.6l-1.8,1.8c-0.8,0.8-0.8,2.2,0,3.1l4.7,4.7
					c0.8,0.8,2.2,0.8,3.1,0l1.8-1.8C40.1,66.3,40.1,64.9,39.2,64.1z M38,65.9l-1.8,1.8c-0.2,0.2-0.4,0.2-0.6,0L30.9,63
					c-0.2-0.2-0.2-0.4,0-0.6l1.8-1.8c0.2-0.2,0.4-0.2,0.6,0l4.7,4.7c0.1,0.1,0.1,0.2,0.1,0.3C38.1,65.7,38.1,65.8,38,65.9z"/>
			</g>
		</g>
		<g>
			<g>
				<path d="M27.2,63.6c-0.3-0.3-0.9-0.3-1.2,0l-0.7,0.7c-0.3,0.3-0.3,0.9,0,1.2c0.3,0.3,0.9,0.3,1.2,0l0.7-0.7
					C27.6,64.5,27.6,64,27.2,63.6z"/>
			</g>
		</g>
		<g>
			<g>
				<path d="M34.9,71.4c-0.3-0.3-0.9-0.3-1.2,0L33,72.1c-0.3,0.3-0.3,0.9,0,1.2c0.3,0.3,0.9,0.3,1.2,0l0.7-0.7
					C35.3,72.3,35.3,71.7,34.9,71.4z"/>
			</g>
		</g>
		<g>
			<g>
				<path d="M31.6,69.7c0-0.5-0.5-0.9-0.9-0.8c-0.2,0-0.5-0.1-0.7-0.3c-0.2-0.2-0.3-0.4-0.3-0.7c0-0.5-0.3-0.9-0.8-0.9
					S28,67.3,28,67.8c-0.1,0.8,0.2,1.5,0.8,2.1c0.5,0.5,1.3,0.8,2.1,0.8C31.3,70.6,31.7,70.2,31.6,69.7z"/>
			</g>
		</g>
		<g>
			<g>
				<path d="M77.6,21.4c-0.3,0-0.5,0-0.8,0.1l-6.5,2.3c-0.2,0.1-0.3,0.2-0.4,0.3l-3.2,4.1L47.8,46c-0.8-0.2-1.7-0.5-1.9-1.1
					c-0.4-1.1,1.1-3,1.8-3.8c0,0,0,0,0.1-0.1c1.3-1.5,1.2-2.6,0.9-3.2c-0.4-0.8-1.2-1.2-2.4-1.2c-3.9,0-6.6,3.4-8,6.7
					c-2,4.3-2.5,5.5-6.8,7.8c-0.4,0.2-0.6,0.8-0.4,1.2s0.8,0.6,1.2,0.4c4.9-2.6,5.6-4.2,7.6-8.6c1.2-2.5,3.3-5.6,6.5-5.6
					c0.5,0,0.7,0.1,0.8,0.2c0,0.1,0,0.5-0.6,1.3c-0.1,0.2-0.8,0.8-1.4,1.7c-0.9,1.5-1.2,2.8-0.9,3.8c0.3,0.9,1,1.5,2.1,1.9L41,52.5
					c-0.4,0.3-0.4,0.9,0,1.3l4,4c0.4,0.4,0.9,0.3,1.3,0l2.1-2.3c0.6,1.1,1.4,1.9,2.3,2.3c1.4,0.5,3,0.3,4.9-0.7
					c0.4-0.2,0.8,0.2,0.7,0.6c-0.5,1.2-2.2,1.9-3.9,2.6c-1.2,0.5-2.4,1-3.3,1.8c0,0,0,0-0.1,0c-0.9,0.9-1.7,2-2.6,3.7
					c-0.9,1.6-1.9,3.8-3.2,6.7c-1,2.1-2.3,3.5-3.9,4c-1.9,0.7-4.3,0.3-7.2-1.1c-3.7-1.9-6.8-5-8.7-8.7c-1.4-2.8-1.8-5.3-1.1-7.2
					c0.6-1.6,1.9-2.9,4-3.9c1.1-0.5,1.9-0.9,2.7-1.2c0.4-0.2,0.6-0.7,0.4-1.2c-0.2-0.4-0.7-0.6-1.2-0.4c-0.7,0.3-1.6,0.7-2.7,1.2
					c-2.6,1.2-4.2,2.8-5,4.9c-0.8,2.4-0.4,5.3,1.2,8.6c2.1,4.1,5.4,7.4,9.5,9.5c2.2,1.1,4.2,1.7,6,1.7c0.9,0,1.8-0.1,2.6-0.4
					c2.1-0.7,3.7-2.4,4.9-5c2.7-5.9,3.9-8.3,5.5-9.8c0.7-0.6,1.7-1,2.8-1.5c2-0.8,4-1.7,4.8-3.5c0.8-1.9-1.3-3.8-3.1-2.8
					c-0.9,0.5-2.3,1-3.4,0.6c-0.7-0.3-1.3-1-1.7-2L62.7,40c0.3-0.4,0.3-0.9,0-1.2c-0.4-0.3-0.9-0.3-1.2,0l-16,17.1l-2.7-2.7L67.4,30
					l1.2,1.2l-4.7,5c-0.3,0.4-0.3,0.9,0,1.2c0.4,0.3,0.9,0.3,1.2,0l5-5.3c0.1,0,0.1,0,0.2,0c1.2,0,4.2-0.4,5.8-3.8
					c0.5-1.1,1.6-1.9,2.5-2.3c0.6-0.3,1.1-0.9,1.3-1.6C80.3,22.9,79.1,21.4,77.6,21.4z M77.9,24.4c-1.6,0.8-2.8,1.9-3.3,3.2
					c-1.1,2.4-3.1,2.8-4.2,2.8c-0.1,0-0.1,0-0.2,0l-1.6-1.6l2.6-3.3c0,0,6.2-2.2,6.3-2.2C78.1,22.9,78.6,24.1,77.9,24.4z"/>
			</g>
		</g>
	</g>
</g>
<g id="Layer_6">
	<g>
		<g>
			<g>
				<path class="st3" d="M56.7,58.7c-0.3-0.4-0.8-0.5-1.2-0.3c-1.2,0.8-2.7,1.8-4.1,3.2c-2.5,2.5-3.1,4.8-3.6,6.8
					c-0.5,1.9-0.9,3.7-2.9,5.6c-4.6,4.7-12.9,4-18.5-1.6c-3-3-4.7-6.9-4.7-10.8c0-3,1-5.7,3-7.7c1-1,1.9-1.6,3.1-2.1
					c0.4-0.2,0.7-0.7,0.5-1.1c-0.2-0.4-0.7-0.7-1.1-0.5c-1.4,0.6-2.5,1.3-3.6,2.5C21.3,55,20,58.1,20,61.6c0,4.3,1.9,8.7,5.2,12
					c3.4,3.4,7.9,5.2,12,5.2c3.4,0,6.6-1.2,9-3.5c2.3-2.3,2.8-4.4,3.3-6.4s0.9-3.8,3.1-6c1.3-1.3,2.7-2.2,3.8-2.9
					C56.9,59.7,57,59.1,56.7,58.7z"/>
			</g>
		</g>
		<g>
			<g>
				<path class="st3" d="M44.4,62.6l-8.2-8.2c-0.3-0.3-0.9-0.3-1.2,0l-3.1,3.1c-0.2,0.2-0.3,0.4-0.3,0.6c0,0.2,0.1,0.5,0.3,0.6
					l8.2,8.2c0.2,0.2,0.4,0.3,0.6,0.3s0.4-0.1,0.6-0.3l3.1-3.1c0.2-0.2,0.3-0.4,0.3-0.6S44.6,62.8,44.4,62.6z M40.7,65.1l-7-6.9
					l1.8-1.8l7,6.9L40.7,65.1z"/>
			</g>
		</g>
		<g>
			<g>
				<path class="st3" d="M38.6,71.9c-0.1-0.8-0.5-1.5-1.2-2s-1.5-0.7-2.3-0.6s-1.5,0.5-2,1.2s-0.7,1.5-0.6,2.3
					c0.1,0.8,0.5,1.5,1.2,2c0.5,0.4,1.2,0.6,1.9,0.6c0.1,0,0.3,0,0.4,0c0.8-0.1,1.5-0.5,2-1.2C38.5,73.5,38.7,72.7,38.6,71.9z
					 M36.6,73.1c-0.2,0.3-0.5,0.5-0.9,0.5c-0.4,0.1-0.7,0-1-0.3c-0.3-0.2-0.5-0.5-0.5-0.9c-0.1-0.4,0-0.7,0.3-1
					c0.2-0.3,0.5-0.5,0.9-0.5c0.1,0,0.1,0,0.2,0c0.3,0,0.6,0.1,0.8,0.3l0,0c0.3,0.2,0.5,0.5,0.5,0.9C36.9,72.5,36.8,72.8,36.6,73.1z
					"/>
			</g>
		</g>
		<g>
			<g>
				<path class="st3" d="M44,69.7c-1-0.8-2.5-0.6-3.3,0.5c-0.8,1-0.6,2.5,0.5,3.3c0.4,0.3,0.9,0.5,1.4,0.5c0.1,0,0.2,0,0.3,0
					c0.6-0.1,1.2-0.4,1.5-0.9C45.3,71.9,45.1,70.4,44,69.7z M43.1,71.9c-0.2,0.3-0.6,0.3-0.8,0.1c-0.3-0.2-0.3-0.6-0.1-0.8
					c0.1-0.2,0.3-0.2,0.5-0.2c0.1,0,0.2,0,0.4,0.1C43.2,71.3,43.3,71.6,43.1,71.9z"/>
			</g>
		</g>
		<g>
			<g>
				<path class="st3" d="M78.7,22.4c-1.5-1.5-3.9-1.7-5.4-0.3l-0.6,0.4l-1-1c-0.3-0.3-0.9-0.3-1.2,0c-0.3,0.3-0.3,0.9,0,1.2l0.7,0.7
					L70,24.2l-1-1c-0.3-0.3-0.9-0.3-1.2,0c-0.3,0.3-0.3,0.9,0,1.2l0.8,0.8L67.3,26l-1.1-1c-0.3-0.3-0.9-0.3-1.2,0
					c-0.3,0.3-0.3,0.9,0,1.2l0.8,0.8l-2,1.3c-0.4,0.2-0.6,0.6-0.6,1c0,0.5,0.1,0.9,0.5,1.2l0,0l0,0L48.8,45.4
					c-0.4-2.2,0-4.7,0.4-6.7c0.4-2.2,0.7-3.7-0.2-4.5c-0.3-0.3-0.8-0.6-1.6-0.4c-5.1,1-7.7,6-9.5,9.6c-0.7,1.4-1.3,2.5-1.8,3.1
					c-1.9,1.9-3.6,2.5-5.1,2.9c-0.5,0.1-0.8,0.6-0.6,1.1c0.1,0.4,0.5,0.7,0.9,0.7c0.1,0,0.1,0,0.2,0c1.7-0.4,3.7-1.1,5.9-3.3
					c0.7-0.7,1.4-2,2.2-3.5c1.7-3.3,4-7.8,8.3-8.6l0,0c0.1,0.5-0.2,1.9-0.3,2.9c-0.4,2.4-1,5.7-0.1,8.5L45.1,49l-1.7-1.7
					c-0.3-0.3-0.9-0.3-1.2,0l-3.1,3.1c-0.2,0.2-0.3,0.4-0.3,0.6c0,0.2,0.1,0.5,0.3,0.6l8.2,8.2c0.2,0.2,0.4,0.3,0.6,0.3
					c0.2,0,0.4-0.1,0.6-0.3l3.1-3.1c0.2-0.2,0.3-0.4,0.3-0.6c0-0.2-0.1-0.5-0.3-0.6l-1.7-1.7l1.9-1.9c2.2,1.1,4.4,1.4,6,1.5
					c1,0.1,2.2,0.2,2.4,0.5c0,0.1,0.1,0.3-0.1,1c-0.1,0.5-0.6,1-1.5,1.6c-0.4,0.3-0.5,0.8-0.2,1.2c0.2,0.2,0.4,0.4,0.7,0.4
					c0.2,0,0.4-0.1,0.5-0.2c0.8-0.6,1.8-1.4,2.2-2.6c0.3-1,0.3-1.8-0.1-2.4c-0.7-1-2-1.1-3.7-1.3c-1.4-0.2-3.2-0.3-4.9-1.1L68.7,35
					c0.2,0,0.4,0.1,0.7,0.1c0,0,0,0,0.1,0c0.8,0,1.4-0.3,1.9-0.8l0.6-0.6c0.3-0.3,0.3-0.9,0-1.2s-0.9-0.3-1.2,0L70.1,33l0,0
					c-0.2,0.2-0.5,0.3-0.7,0.3c-0.4,0-0.8-0.2-1.1-0.5L65,29.6l9.4-6.1c0.1,0,0.1-0.1,0.1-0.1c0.7-0.7,2.1-0.6,3,0.3
					c0.5,0.5,0.7,1.1,0.7,1.7c0,0.5-0.2,0.9-0.5,1.2c-0.4,0.4-0.9,0.5-1.4,0.5c-0.3,0-0.5,0.1-0.7,0.3l-2.3,2.4
					c-0.3,0.3-0.3,0.9,0,1.2c0.3,0.3,0.9,0.3,1.2,0l2.1-2.1c0.9,0,1.7-0.4,2.4-1c0.6-0.6,1-1.5,1-2.5C80,24.2,79.5,23.2,78.7,22.4z
					 M47.9,57.9l-7-6.9l1.8-1.8l7,6.9L47.9,57.9z M48.6,52.5l-2.2-2.2l4.3-4.3l2.2,2.2L48.6,52.5z M54.2,47L52,44.8l2.2-2.2l2.2,2.2
					L54.2,47z M57.7,43.5l-2.2-2.2l2.2-2.2l2.2,2.2L57.7,43.5z M61.1,40l-2.2-2.2l2.2-2.2l2.2,2.2L61.1,40z M67.1,34.1L67.1,34.1
					l-2.4,2.4l-2.2-2.2l2.4-2.4L67.1,34.1z"/>
			</g>
		</g>
	</g>
</g>
</svg>
